<svg xmlns="http://www.w3.org/2000/svg" xmlns:xlink="http://www.w3.org/1999/xlink" t="1626428428823" class="icon"
    viewBox="0 0 1024 1024" version="1.1" p-id="2641" width="200" height="200">
    <defs>
        <style type="text/css" />
    </defs>
    <path
        d="M832 576 576 576 576 832C576 867.328 547.328 896 512 896 476.608 896 448 867.328 448 832L448 576 192 576C156.608 576 128 547.328 128 512 128 476.672 156.608 448 192 448L448 448 448 192C448 156.672 476.608 128 512 128 547.328 128 576 156.672 576 192L576 448 832 448C867.328 448 896 476.672 896 512 896 547.328 867.328 576 832 576Z"
        p-id="2642" fill="#ffffff" />
</svg>